<?xml version="1.0" encoding="utf-8"?>
<!-- Generator: Adobe Illustrator 15.0.0, SVG Export Plug-In . SVG Version: 6.00 Build 0)  -->
<!DOCTYPE svg PUBLIC "-//W3C//DTD SVG 1.1//EN" "http://www.w3.org/Graphics/SVG/1.1/DTD/svg11.dtd">
<svg version="1.1" id="Ebene_1" xmlns="http://www.w3.org/2000/svg" xmlns:xlink="http://www.w3.org/1999/xlink" x="0px" y="0px"
	 width="470.551px" height="402.52px" viewBox="0 0 470.551 402.52" enable-background="new 0 0 470.551 402.52"
	 xml:space="preserve">
<g>
	<g id="Ringe_x5F_Schwarz_1_">
		<g id="Blau1_2_">
			<path fill="#0079C0" d="M188.806,275.601c-2.613,2.613-5.832,4.622-9.427,5.798l-1.255,2.567l1.033,2.457
				c5.002-1.296,9.472-3.912,13.015-7.456l-0.602-2.765L188.806,275.601z"/>
			<path id="Blue_Ring_2_" fill="#0079C0" d="M171.973,230.193c-15.778,0-28.571,12.791-28.571,28.574
				c0,15.777,12.793,28.568,28.571,28.568c0.83,0,1.655-0.036,2.469-0.106l0.817-2.272l-0.797-2.512
				c-0.818,0.085-1.649,0.129-2.489,0.129c-13.147,0-23.808-10.659-23.808-23.807c0-13.153,10.66-23.813,23.808-23.813l1.569-2.38
				L171.973,230.193z"/>
		</g>
		<g id="Grün1_2_">
			<path fill="#009036" d="M281.655,268.121c3.517,3.516,5.938,8.127,6.709,13.278l2.225,1.95l2.691-0.904
				c-0.599-6.887-3.643-13.075-8.259-17.691l-2.829,0.536L281.655,268.121z"/>
			<path fill="#009036" d="M264.821,313.521c15.013,0,27.321-11.576,28.481-26.292l-2.394-1.588l-2.325,0.782
				c-0.758,12.464-11.106,22.339-23.763,22.339l-1.571,2.38L264.821,313.521z"/>
		</g>
		<path id="Rot_2_" fill="#E42343" d="M324.338,258.767c0,15.777-12.79,28.568-28.569,28.568c-14.931,0-27.189-11.458-28.46-26.059
			l2.614-0.654l2.306,1.7c1.714,11.462,11.603,20.251,23.54,20.251c13.149,0,23.809-10.659,23.809-23.807
			c0-13.153-10.659-23.813-23.809-23.813c-12.654,0-23.001,9.875-23.76,22.342l-2.901,0.842l-1.815-1.646
			c1.158-14.72,13.466-26.299,28.477-26.299C311.548,230.193,324.338,242.984,324.338,258.767z"/>
		<g id="Schwarz1_2_">
			<path d="M233.871,230.193c-15.012,0-27.318,11.579-28.479,26.299l2.026,1.406l2.689-0.602
				c0.759-12.467,11.106-22.342,23.763-22.342l1.571-2.38L233.871,230.193z"/>
			<path d="M217.036,275.601c-3.515-3.517-5.937-8.127-6.709-13.278l-2.083-1.7l-2.832,0.654c0.6,6.889,3.643,13.076,8.258,17.691
				L217.036,275.601z"/>
		</g>
		<g id="Gelb_2_">
			<path fill="#F9B41D" d="M200.43,261.277l-1.437-2.512l1.458-2.273c0.814-0.069,1.638-0.105,2.469-0.105
				c14.934,0,27.189,11.458,28.459,26.059l-2.419,0.721l-2.497-1.767c-1.716-11.462-11.603-20.251-23.543-20.251
				C202.08,261.148,201.25,261.192,200.43,261.277z"/>
			<path fill="#F9B41D" d="M231.402,287.229c-1.16,14.716-13.467,26.292-28.481,26.292c-15.776,0-28.568-12.788-28.568-28.564
				c0-13.297,9.083-24.473,21.383-27.66l0.792,2.219l-1.012,2.808c-9.521,3.114-16.4,12.07-16.4,22.634
				c0,13.147,10.659,23.806,23.806,23.806c12.656,0,23.005-9.875,23.765-22.339l2.324-0.6L231.402,287.229z"/>
		</g>
		<g id="Schwarz2_2_">
			<path d="M213.669,278.968c5.171,5.17,12.313,8.367,20.201,8.367c0.831,0,1.656-0.036,2.47-0.106l1.051-2.275l-1.03-2.509
				c-0.819,0.085-1.648,0.129-2.49,0.129c-6.575,0-12.526-2.665-16.835-6.973l-2.693,0.738L213.669,278.968z"/>
			<path d="M250.706,275.601c-2.614,2.613-5.831,4.622-9.428,5.798l-1.137,2.684l0.918,2.341c5.002-1.296,9.471-3.912,13.015-7.456
				l-0.323-2.811L250.706,275.601z"/>
		</g>
		<g id="Grün2_2_">
			<path fill="#009036" d="M285.021,264.753c-5.17-5.17-12.311-8.367-20.2-8.367c-0.832,0-1.657,0.036-2.47,0.105l-1.226,2.275
				l1.206,2.51c0.817-0.085,1.649-0.129,2.489-0.129c6.574,0,12.526,2.664,16.834,6.973L285.021,264.753z"/>
			<path fill="#009036" d="M264.821,308.762c-13.148,0-23.807-10.658-23.807-23.806c0-10.563,6.88-19.52,16.403-22.634l1.125-2.691
				l-0.908-2.335c-12.298,3.188-21.382,14.363-21.382,27.66c0,15.776,12.791,28.564,28.568,28.564V308.762z"/>
		</g>
		<path id="Blau2_2_" fill="#0079C0" d="M171.973,234.955c13.147,0,23.807,10.659,23.807,23.813c0,6.574-2.666,12.525-6.974,16.834
			l3.366,3.366c5.17-5.17,8.368-12.312,8.368-20.2c0-15.783-12.791-28.574-28.567-28.574V234.955z"/>
		<path id="Schwarz3_2_" d="M254.074,278.967c5.17-5.17,8.368-12.312,8.368-20.2c0-15.783-12.792-28.574-28.571-28.574v4.762
			c13.149,0,23.808,10.659,23.808,23.813c0,6.574-2.664,12.525-6.973,16.834L254.074,278.967z"/>
	</g>
	<g id="Fahne_x5F_Schwarz_1_">
		<polygon fill="#F9B41D" points="374.172,211.572 280.629,211.572 275.394,205.708 280.629,199.843 374.172,199.843 		"/>
		<polygon fill="#E42343" points="280.629,211.572 187.086,211.572 181.798,205.708 187.086,199.843 280.629,199.843 		"/>
		<rect x="93.543" y="199.843" width="93.543" height="11.729"/>
	</g>
	<g>
		<path d="M366.822,135.086c7.094,4.232,10.187,11.528,10.187,18.372c0,13.475-9.004,24.243-29.046,24.243h-44.172V95.114h44.688
			c20.433,0,27.306,11.573,27.306,22.799C375.784,124.621,371.792,132.023,366.822,135.086z M348.424,165.772
			c10.991,0,15.892-5.517,15.892-12.321c0-6.804-4.623-12.319-15.337-12.319h-32.412v24.641H348.424z M348.84,129.193
			c9.281,0,14.168-4.281,14.168-11.07c0-7.296-6.086-11.071-14.53-11.071h-31.911v22.142H348.84z"/>
		<g>
			<path d="M93.543,95.114v82.604h35.945c10.903,0,19.548-2.501,26.226-6.545l-2.071-6.018l-7.193-2.97
				c-4.466,2.291-9.829,3.594-15.971,3.594h-24.16v-58.729l-4.544-7.937L93.543,95.114z"/>
			<path d="M161.645,136.416c0,6.649-1.96,12.786-5.617,17.709l1.651,7.665l7.634,1.082c6.334-7.728,9.106-17.425,9.108-26.456
				l-6.389-4.187L161.645,136.416z"/>
			<linearGradient id="SVGID_1_" gradientUnits="userSpaceOnUse" x1="181.0146" y1="93.5435" x2="181.0146" y2="179.2642">
				<stop  offset="0.1217" style="stop-color:#000000"/>
				<stop  offset="0.1563" style="stop-color:#1D0C0D"/>
				<stop  offset="0.1765" style="stop-color:#391418"/>
				<stop  offset="0.198" style="stop-color:#4E141A"/>
				<stop  offset="0.2249" style="stop-color:#6C1D26"/>
				<stop  offset="0.2772" style="stop-color:#A02636"/>
				<stop  offset="0.3209" style="stop-color:#C5273E"/>
				<stop  offset="0.3537" style="stop-color:#DC2542"/>
				<stop  offset="0.3719" style="stop-color:#E42343"/>
				<stop  offset="0.6437" style="stop-color:#E42343"/>
				<stop  offset="0.7125" style="stop-color:#EA613F"/>
				<stop  offset="0.7927" style="stop-color:#F3992A"/>
				<stop  offset="0.7992" style="stop-color:#F49D28"/>
				<stop  offset="0.8378" style="stop-color:#F9B41D"/>
			</linearGradient>
			<path fill="url(#SVGID_1_)" d="M224.284,136.402c0,23.673-19.372,42.862-43.27,42.862c-23.896,0-43.269-19.189-43.269-42.862
				c0-23.67,19.372-42.858,43.269-42.858C204.912,93.543,224.284,112.732,224.284,136.402z M180.967,105.499
				c-16.832,0-30.478,13.824-30.478,30.876c0,17.055,13.646,30.879,30.478,30.879c16.834,0,30.479-13.824,30.479-30.879
				C211.446,119.323,197.801,105.499,180.967,105.499z"/>
			<path d="M174.421,136.416c-0.002-19.151-12.468-41.302-44.933-41.302H93.543l12.775,11.938h24.16
				c19.516,0,31.166,13.15,31.166,29.364H174.421z"/>
		</g>
		<path d="M253.324,140.757c-19.411-1.128-25.354-11.801-25.354-22.844c0-11.227,6.872-22.8,27.305-22.8h40.314l-4.385,11.938
			l-35.93,0.001c-8.755,0-14.528,3.543-14.528,10.86c0,6.488,4.563,10.005,13.171,10.541l14.831,0.976
			c19.663,1.132,26.965,10.142,26.965,24c0,13.475-8.932,24.251-29.172,24.251h-43.066l4.385-11.908l38.936-0.021
			c11.613,0,16.1-6.036,16.1-12.321c0-7.542-4.953-10.922-14.837-11.705L253.324,140.757z"/>
	</g>
</g>
</svg>
