<?xml version="1.0" standalone="no"?>
<!DOCTYPE svg PUBLIC "-//W3C//DTD SVG 20010904//EN"
 "http://www.w3.org/TR/2001/REC-SVG-20010904/DTD/svg10.dtd">
<svg version="1.0" xmlns="http://www.w3.org/2000/svg"
 width="1018.000000pt" height="1018.000000pt" viewBox="0 0 1018.000000 1018.000000"
 preserveAspectRatio="xMidYMid meet">
<metadata>
Created by potrace 1.11, written by Peter Selinger 2001-2013
</metadata>
<g transform="translate(0.000000,1018.000000) scale(0.100000,-0.100000)"
fill="#000000" stroke="none">
<path d="M1628 9655 c-2 -2 -17 -7 -33 -10 -34 -7 -58 -13 -65 -15 -3 -1 -8
-2 -12 -1 -5 0 -8 -3 -8 -9 0 -5 -3 -9 -7 -8 -12 3 -102 -41 -136 -66 -69 -50
-144 -134 -177 -201 -8 -16 -18 -32 -22 -35 -4 -3 -9 -15 -11 -25 -1 -11 -5
-24 -8 -30 -6 -9 -14 -38 -27 -95 -9 -41 -5 -202 7 -255 6 -27 24 -78 41 -112
16 -35 29 -66 29 -70 -1 -3 3 -9 8 -12 4 -3 21 -24 37 -46 34 -47 112 -125
125 -125 5 0 14 -6 20 -14 26 -31 186 -96 239 -96 12 0 22 -4 22 -10 0 -5 6
-8 13 -5 6 2 53 6 102 9 216 12 398 123 503 305 49 84 58 112 80 226 11 57 8
171 -7 235 -22 92 -87 213 -151 278 -96 99 -180 147 -307 176 -55 12 -245 21
-255 11z"/>
<path d="M8259 9656 c-2 -2 -22 -7 -44 -10 -22 -4 -44 -11 -49 -16 -6 -6 -20
-10 -32 -10 -12 0 -27 -7 -34 -15 -7 -8 -20 -15 -30 -15 -10 0 -23 -7 -30 -15
-7 -8 -18 -15 -26 -15 -7 0 -44 -31 -81 -68 -77 -77 -88 -91 -105 -127 -6 -14
-16 -25 -21 -25 -6 0 -7 -3 -4 -6 4 -4 -2 -23 -13 -43 -87 -165 -60 -428 64
-606 19 -28 125 -136 157 -160 21 -16 139 -72 179 -84 19 -7 75 -14 125 -17
49 -3 92 -8 94 -10 2 -2 9 0 15 5 6 5 29 12 51 14 22 2 48 7 57 11 9 4 22 8
30 10 48 7 160 78 229 146 64 62 84 91 122 170 53 111 58 132 63 267 3 113
-15 203 -62 295 -30 59 -27 55 -95 131 -81 89 -197 159 -306 183 -33 7 -248
16 -254 10z"/>
<path d="M2245 8133 c4 -10 8 -25 10 -33 2 -8 8 -30 14 -47 5 -18 7 -33 4 -33
-3 0 1 -7 8 -17 8 -9 12 -18 10 -20 -3 -4 33 -166 49 -218 5 -16 12 -47 16
-69 3 -21 7 -46 10 -55 8 -35 49 -239 58 -291 3 -19 8 -48 11 -65 3 -16 8 -52
11 -80 8 -69 8 -69 16 -76 20 -14 -28 -40 -152 -83 -74 -26 -142 -50 -150 -53
-8 -4 -17 -7 -20 -8 -12 -4 -47 -17 -65 -25 -11 -5 -96 -38 -190 -75 -93 -37
-174 -70 -180 -75 -5 -4 -21 -11 -35 -15 -29 -9 -115 -48 -260 -118 -58 -28
-107 -51 -110 -51 -3 -1 -9 -4 -15 -8 -5 -3 -48 -26 -95 -51 -145 -77 -153
-82 -174 -99 -11 -10 -24 -18 -28 -18 -7 0 -75 -41 -103 -63 -5 -4 -44 -32
-85 -62 -120 -88 -225 -199 -254 -270 -5 -11 -10 -44 -11 -74 -3 -60 9 -86 60
-134 27 -26 165 -101 165 -91 0 3 9 0 20 -6 11 -6 62 -20 113 -31 120 -27 114
-26 172 -34 197 -26 255 -31 465 -39 133 -4 113 3 -50 19 -58 5 -91 10 -205
29 -131 22 -335 88 -335 108 0 4 -5 8 -11 8 -21 0 -76 65 -84 99 -7 35 11 121
26 121 5 0 9 5 9 11 0 6 14 27 30 46 17 18 30 32 30 30 0 -2 19 14 43 36 35
33 87 70 202 145 11 7 28 15 38 18 9 4 17 10 17 15 0 5 6 9 13 9 7 0 29 11 50
25 20 14 37 23 37 19 0 -4 9 1 20 11 11 10 20 16 20 12 0 -3 37 15 82 39 45
24 87 44 93 44 6 0 20 7 31 15 10 8 27 15 37 15 9 0 17 5 17 10 0 6 8 10 18
10 10 0 26 6 37 13 11 7 52 26 90 42 39 15 84 34 100 41 50 21 159 65 170 68
6 2 17 6 25 9 67 27 370 137 390 142 20 5 26 2 26 -12 0 -10 4 -56 8 -103 25
-275 34 -706 21 -955 -7 -152 -15 -258 -20 -295 -3 -19 -7 -62 -10 -95 -6 -66
-9 -92 -20 -175 -4 -30 -9 -71 -11 -90 -1 -19 -3 -35 -4 -35 -2 0 -9 -34 -14
-75 -3 -19 -8 -48 -11 -65 -3 -16 -10 -52 -15 -80 -5 -27 -12 -61 -14 -75 -3
-14 -8 -36 -11 -50 -3 -14 -8 -38 -10 -55 -3 -16 -8 -37 -10 -45 -2 -8 -6 -26
-9 -40 -2 -14 -9 -45 -16 -70 -7 -25 -14 -56 -17 -70 -2 -14 -8 -38 -13 -55
-9 -27 -30 -104 -36 -130 -1 -5 -14 -50 -29 -100 -14 -49 -28 -94 -29 -100 -2
-5 -6 -17 -9 -25 -3 -8 -22 -67 -43 -130 -20 -63 -41 -121 -47 -128 -5 -6 -6
-12 -2 -12 4 0 1 -7 -6 -17 -8 -9 -13 -17 -11 -17 4 -1 -4 -25 -25 -81 -42
-108 -119 -296 -152 -368 -16 -34 -39 -84 -51 -112 -40 -89 -168 -345 -178
-358 -6 -7 -12 -19 -14 -27 -2 -8 -5 -17 -8 -20 -3 -3 -12 -18 -21 -35 -9 -16
-36 -64 -59 -105 -24 -41 -43 -77 -41 -79 1 -2 -1 -7 -6 -10 -5 -3 -20 -26
-34 -51 -13 -25 -26 -47 -29 -50 -3 -3 -29 -45 -59 -95 -30 -49 -58 -91 -63
-93 -4 -2 -8 -8 -8 -14 0 -10 -211 -325 -267 -397 -7 -9 -33 -45 -60 -81 -26
-36 -50 -67 -53 -70 -3 -3 -38 -49 -79 -103 -41 -54 -79 -104 -85 -110 -6 -7
-41 -48 -76 -92 -36 -44 -69 -85 -75 -91 -5 -6 -30 -35 -55 -64 -25 -30 -57
-67 -72 -83 -15 -16 -41 -46 -58 -67 -17 -21 -45 -53 -63 -72 -18 -18 -70 -76
-117 -128 -129 -143 -155 -172 -190 -210 -67 -73 -112 -140 -106 -156 7 -17
61 -13 99 8 12 7 24 13 27 13 3 1 33 15 67 33 35 18 66 32 69 31 4 0 10 3 13
8 3 5 44 31 91 58 73 42 193 119 320 206 20 13 46 34 60 47 13 12 28 22 32 22
5 0 20 10 33 22 13 13 42 36 64 52 23 17 41 33 41 38 0 4 6 8 13 8 7 0 19 9
27 20 8 11 18 20 22 20 5 0 29 19 53 42 25 24 63 59 86 78 154 132 464 461
617 654 31 39 58 73 62 76 3 3 18 23 35 45 16 22 32 42 35 45 3 3 13 16 23 30
9 14 35 50 57 80 50 68 151 216 166 241 6 10 18 27 27 37 10 10 17 22 17 26 0
4 8 20 19 34 34 49 151 243 151 252 0 5 6 15 13 22 6 7 25 38 41 68 34 64 65
121 74 135 4 6 7 12 8 15 2 14 30 67 41 78 7 7 13 17 13 22 0 4 29 68 63 141
35 74 73 154 84 179 50 110 155 389 203 535 29 88 54 167 57 175 10 25 19 61
29 109 3 14 7 28 10 33 10 16 95 390 109 480 3 18 9 56 14 83 5 28 12 73 15
100 4 28 9 66 11 85 4 32 7 61 21 195 14 145 20 520 10 660 -12 167 -21 256
-30 303 -4 18 -8 50 -11 70 -2 20 -6 51 -9 67 -3 17 -7 44 -10 60 -8 56 -16
90 -46 210 -17 66 -33 129 -35 140 -4 22 -31 114 -64 214 -12 35 -21 65 -21
66 0 2 75 25 99 30 9 2 36 10 61 18 76 26 194 60 208 60 6 0 12 3 12 7 0 3 8
6 18 7 9 1 51 11 92 23 76 22 291 80 388 104 54 14 60 15 65 17 8 2 36 9 61
14 16 3 33 8 38 11 5 3 21 7 36 9 15 2 50 9 77 15 28 6 58 13 68 15 10 2 26 6
35 9 9 3 33 8 52 11 19 3 51 10 70 15 19 5 53 12 75 16 43 7 44 7 90 17 17 3
46 9 65 11 19 3 46 8 60 11 14 3 42 7 64 10 21 3 52 8 70 11 169 32 400 36
576 10 19 -3 58 -8 85 -12 28 -3 73 -10 100 -15 28 -6 64 -12 80 -14 17 -3 53
-9 80 -15 28 -5 61 -12 75 -14 14 -3 25 -5 25 -6 0 -1 14 -4 30 -6 28 -4 189
-39 270 -60 12 -3 56 -12 92 -20 15 -3 30 -7 34 -9 4 -3 23 -7 44 -11 20 -3
54 -12 76 -19 22 -8 42 -14 44 -14 21 0 82 -15 93 -24 6 -5 12 -7 12 -4 0 3
15 1 33 -4 17 -6 43 -13 57 -16 34 -7 43 -9 60 -15 8 -3 71 -22 140 -41 269
-76 501 -147 514 -158 4 -4 -4 -45 -20 -91 -15 -45 -29 -87 -31 -93 -1 -5 -14
-55 -29 -110 -14 -55 -27 -107 -29 -115 -2 -8 -8 -33 -13 -55 -6 -22 -13 -53
-15 -70 -3 -16 -10 -59 -17 -95 -13 -70 -14 -74 -25 -165 -4 -33 -8 -71 -10
-85 -5 -28 -14 -131 -20 -217 -5 -67 -5 -452 -1 -533 6 -94 17 -224 21 -250 2
-14 7 -47 10 -75 12 -106 23 -188 35 -250 6 -27 12 -61 15 -75 4 -21 16 -81
20 -100 1 -3 5 -25 10 -50 10 -53 12 -59 14 -62 2 -2 4 -14 7 -28 2 -14 8 -41
14 -60 19 -67 72 -265 75 -283 2 -9 7 -22 10 -27 3 -5 8 -18 10 -27 2 -10 13
-44 24 -75 11 -32 17 -58 14 -58 -3 0 -1 -6 4 -12 5 -7 16 -33 23 -58 7 -25
17 -49 20 -55 4 -5 13 -28 20 -50 7 -22 17 -46 23 -52 5 -7 6 -13 2 -13 -4 0
-2 -7 5 -15 7 -8 10 -15 6 -15 -4 0 3 -18 14 -40 20 -39 20 -39 0 -50 -11 -6
-20 -9 -20 -6 0 2 -20 -2 -45 -10 -25 -7 -45 -10 -45 -7 0 3 -7 0 -15 -7 -8
-7 -15 -10 -15 -7 0 2 -37 -6 -82 -20 -46 -13 -94 -27 -108 -29 -13 -3 -30
-10 -37 -16 -7 -6 -13 -8 -13 -5 0 14 -266 -90 -385 -151 -175 -89 -344 -224
-385 -307 -8 -17 -20 -37 -27 -46 -7 -8 -15 -26 -17 -40 -2 -13 -5 -24 -6 -24
-6 0 -12 -50 -12 -105 0 -75 25 -151 75 -226 39 -59 193 -214 213 -214 8 0 14
-3 14 -7 0 -5 28 -26 63 -48 34 -22 64 -43 65 -47 2 -5 12 -8 23 -8 10 0 19
-5 19 -12 0 -6 3 -8 6 -5 4 4 19 -2 33 -12 32 -22 256 -121 274 -121 7 0 17
-4 23 -10 5 -5 18 -11 29 -13 11 -2 27 -7 35 -10 14 -5 82 -26 185 -56 22 -7
47 -13 55 -14 8 -2 21 -6 28 -10 6 -5 12 -6 12 -3 0 2 28 -2 63 -11 81 -19
203 -43 247 -49 19 -2 51 -6 70 -9 19 -3 55 -7 80 -10 25 -2 61 -7 80 -9 74
-10 261 -19 403 -20 l148 -1 42 -46 c23 -26 60 -68 82 -95 93 -112 366 -391
474 -484 29 -25 64 -56 79 -70 37 -33 92 -79 132 -110 18 -14 49 -40 69 -57
20 -18 39 -33 42 -33 4 0 22 -13 40 -30 19 -16 39 -30 46 -30 6 0 13 -4 15 -9
3 -10 249 -176 260 -176 4 0 16 -7 26 -15 55 -44 326 -180 372 -186 40 -6 42
-5 35 17 -4 13 -14 34 -22 47 -12 19 -132 158 -183 212 -8 9 -46 51 -85 94
-38 43 -79 88 -90 100 -11 12 -54 60 -95 106 -41 47 -77 87 -80 90 -3 3 -25
30 -50 60 -25 30 -50 61 -57 68 -11 11 -76 91 -96 117 -4 5 -17 22 -30 36 -76
89 -257 326 -257 338 0 5 -3 11 -7 13 -16 7 -75 90 -68 96 3 4 68 19 143 35
75 15 145 30 155 32 9 3 25 7 35 9 177 46 478 147 496 167 8 9 8 10 -1 5 -7
-4 -38 -9 -70 -12 -32 -3 -80 -7 -108 -10 -27 -2 -75 -7 -105 -9 -30 -2 -88
-7 -128 -10 -94 -8 -254 -15 -420 -19 l-134 -4 -76 117 c-111 171 -163 257
-287 476 -60 106 -215 405 -220 425 -1 3 -20 46 -44 95 -23 50 -51 111 -62
138 -10 26 -30 70 -44 97 -14 27 -25 51 -24 52 1 5 -12 42 -37 101 -29 70 -29
74 -6 80 13 4 12 5 -5 6 -17 1 -26 14 -43 59 -30 76 -71 193 -75 212 -2 8 -12
42 -23 75 -28 84 -63 197 -67 215 -2 8 -15 59 -30 113 -14 53 -28 106 -31 117
-10 47 -13 57 -24 100 -7 25 -13 54 -15 65 -1 11 -10 54 -18 95 -9 41 -18 86
-21 100 -2 14 -7 36 -10 50 -3 14 -8 41 -10 60 -2 19 -7 46 -10 60 -3 14 -7
43 -10 65 -3 22 -8 51 -10 64 -3 13 -8 49 -11 80 -4 31 -9 70 -11 86 -3 17 -8
55 -10 85 -3 30 -7 78 -10 105 -30 326 -34 789 -9 1110 3 33 7 96 10 139 3 44
7 81 9 83 2 3 24 -2 48 -11 23 -8 77 -26 118 -41 41 -14 84 -30 95 -35 11 -5
97 -39 190 -75 94 -37 193 -77 220 -90 28 -12 84 -38 125 -56 82 -37 312 -152
374 -188 204 -117 341 -234 387 -329 15 -31 16 -56 7 -103 -5 -24 -51 -79 -65
-79 -7 0 -13 -3 -13 -7 0 -16 -181 -87 -246 -97 -20 -4 -40 -8 -44 -11 -7 -4
-22 -7 -115 -20 -16 -2 -48 -7 -70 -11 -22 -4 -61 -8 -86 -9 -25 -1 -50 -5
-55 -8 -6 -3 -27 -4 -47 -3 -20 2 -37 -1 -37 -5 0 -12 245 -2 405 16 112 13
137 17 270 41 88 15 227 58 251 76 6 4 14 5 17 1 4 -3 7 -1 7 5 0 7 7 12 15
12 19 0 128 107 120 119 -3 5 -2 12 3 15 7 4 9 81 2 81 -1 0 -3 10 -6 23 -11
60 -125 188 -248 279 -39 29 -76 57 -83 63 -7 5 -16 10 -22 10 -5 0 -11 4 -13
8 -6 16 -233 145 -420 238 -102 52 -188 94 -191 94 -3 0 -44 18 -91 40 -47 22
-88 40 -90 40 -3 0 -29 11 -58 24 -48 21 -85 37 -98 41 -6 2 -49 19 -100 39
-34 14 -65 25 -75 26 -2 1 -29 12 -58 25 -30 13 -74 29 -98 35 -24 7 -46 15
-49 19 -3 3 -37 17 -77 29 -64 20 -71 25 -67 45 3 12 6 33 8 47 17 117 24 155
26 155 1 0 3 18 5 40 4 32 43 234 70 360 5 22 13 60 20 90 2 11 15 61 28 112
14 51 22 94 19 98 -3 3 0 5 7 5 7 0 10 4 7 8 -3 5 4 37 14 72 20 67 18 88 -6
55 -8 -11 -22 -29 -31 -40 -37 -44 -172 -226 -194 -262 -13 -21 -29 -44 -36
-51 -7 -7 -13 -17 -13 -22 0 -5 -6 -15 -13 -22 -17 -17 -127 -206 -127 -219 0
-5 -5 -9 -12 -9 -6 0 -9 -3 -5 -6 3 -3 -7 -27 -22 -52 -28 -49 -63 -120 -100
-208 l-22 -52 -47 15 c-26 8 -60 19 -77 24 -16 4 -52 15 -80 23 -96 28 -170
48 -185 51 -8 1 -22 5 -30 8 -17 6 -109 27 -125 29 -5 0 -21 5 -35 10 -22 9
-44 14 -85 22 -5 1 -16 5 -23 10 -7 4 -16 6 -19 3 -3 -3 -15 -2 -27 3 -13 4
-38 11 -58 14 -19 3 -60 12 -92 20 -31 8 -74 18 -94 21 -21 3 -49 8 -62 10
-52 11 -246 46 -275 49 -44 5 -122 16 -187 25 -32 4 -69 7 -83 6 -14 0 -25 2
-25 5 0 16 -560 16 -560 0 0 -13 -133 -17 -205 -6 -100 15 -153 18 -290 18
-160 1 -345 -11 -455 -28 -52 -8 -69 -11 -130 -18 -30 -4 -68 -10 -85 -13 -16
-3 -40 -7 -52 -8 -12 -2 -34 -6 -50 -9 -35 -8 -70 -15 -105 -21 -16 -3 -40 -7
-55 -10 -16 -3 -39 -7 -53 -10 -14 -3 -36 -8 -50 -11 -14 -3 -74 -16 -135 -30
-60 -14 -121 -28 -135 -30 -14 -3 -32 -7 -40 -10 -14 -5 -135 -37 -185 -49
-11 -3 -76 -21 -145 -40 -180 -52 -164 -52 -191 3 -12 26 -23 49 -24 52 -1 10
-77 155 -87 168 -6 6 -8 12 -5 12 4 0 -5 16 -18 36 -14 20 -25 43 -25 50 0 8
-3 14 -8 14 -4 0 -18 21 -32 48 -40 76 -181 280 -277 402 -24 30 -51 65 -61
77 -20 27 -37 30 -27 6z m5253 -4670 c-3 -15 143 -321 240 -505 120 -229 326
-561 460 -743 69 -94 69 -92 12 -91 -28 1 -50 3 -50 6 0 3 -21 6 -48 7 -94 5
-217 18 -217 23 0 1 -13 3 -30 5 -64 7 -150 20 -190 28 -11 3 -42 8 -70 12
-53 9 -63 11 -67 15 -2 1 -16 4 -33 6 -16 3 -37 7 -45 11 -8 3 -22 7 -31 8
-18 2 -107 24 -129 32 -19 7 -30 11 -55 16 -25 6 -179 60 -220 78 -16 7 -32
13 -35 14 -19 5 -126 65 -180 101 -245 162 -268 357 -67 560 41 41 78 74 82
74 4 0 15 8 24 18 19 21 177 120 242 151 24 12 51 26 59 31 28 18 231 110 244
110 7 0 16 3 20 8 7 7 64 30 79 31 4 1 6 -2 5 -6z"/>
<path d="M8435 5640 c3 -5 8 -10 11 -10 2 0 4 5 4 10 0 6 -5 10 -11 10 -5 0
-7 -4 -4 -10z"/>
</g>
</svg>
