<?xml version="1.0" encoding="UTF-8" standalone="no"?><svg xmlns="http://www.w3.org/2000/svg" version="1.1" height="342.37808pt" width="508.84236" viewBox="0 0 381.63177 342.37808" style="isolation:isolate"><metadata/><defs><clipPath id="a"><path d="M0 0H900V600H0z"/></clipPath></defs><g transform="translate(-2.5084304 -2.8047915)" clip-path="url(#a)"><defs><mask id="c"><path style="fill:#ffffff;stroke:#000000;stroke-miterlimit:10" d="M 0,235 H 522 V 583 H 0 Z"/></mask><mask id="b"><path style="fill:#ffffff;stroke:#000000;stroke-miterlimit:10" d="M 0,235 H 522 V 583 H 0 Z"/></mask></defs><g transform="translate(-473.63163 -17.816864)"><path style="fill:#b71c1c" d="M559.946 76.49c81.996 96.099 2.19 247.458-80.581 285.998-27.804 8.761 134.84-95.31 80.581-285.998zM773.977 76.49c-81.996 96.099-2.19 247.458 80.567 285.998 27.817 8.761-134.826-95.31-80.567-285.998zM557.755 27.199c12.794 12.794 6.397 35.176-11.284 39.262-22.329 5.142-37.579-21.42-22.703-38.367 3.299-3.739 7.466-5.636 12.126-7.025 8.04-1.322 15.892.161 21.861 6.13zM806.134 27.199c12.807 12.794 6.397 35.176-11.284 39.262-22.329 5.142-37.58-21.42-22.689-38.367 3.285-3.739 7.451-5.636 12.125-7.025 8.026-1.322 15.879.161 21.848 6.13z"/><path style="fill:#b71c1c" d="m 669.559,102.318 c -43.389,-19.645 -271.375,68.227 -125.318,68.989 -118.4,-6.077 84.56,-71.073 125.318,-68.989 z"/><path style="fill:#b71c1c" d="M661.199 102.318c43.375-19.645 271.361 68.227 125.304 68.989 118.4-6.077-84.547-71.073-125.304-68.989zM782.55 243.941c-154.564 19.952-31.797 97.341 64.916 57.424-102.508 12.006-183.503-23.41-64.916-57.424z"/></g></g></svg>