<?xml version="1.0" encoding="UTF-8" standalone="no"?>
<svg
   xmlns:dc="http://purl.org/dc/elements/1.1/"
   xmlns:cc="http://creativecommons.org/ns#"
   xmlns:rdf="http://www.w3.org/1999/02/22-rdf-syntax-ns#"
   xmlns:svg="http://www.w3.org/2000/svg"
   xmlns="http://www.w3.org/2000/svg"
   id="svg1484"
   version="1.1"
   height="144.69389pt"
   width="330.88461pt"
   viewBox="0 0 330.88461 144.69389"
   style="isolation:isolate">
  <metadata
     id="metadata1488">
    <rdf:RDF>
      <cc:Work
         rdf:about="">
        <dc:format>image/svg+xml</dc:format>
        <dc:type
           rdf:resource="http://purl.org/dc/dcmitype/StillImage" />
        <dc:title></dc:title>
      </cc:Work>
    </rdf:RDF>
  </metadata>
  <defs
     id="defs772">
    <clipPath
       id="_clipPath_mEzi0oRCAFt6mNw2Cdr4kt4goTaracK5">
      <rect
         y="0"
         x="0"
         id="rect769"
         height="600"
         width="900" />
    </clipPath>
  </defs>
  <g
     transform="translate(-561.79638,-57.761166)"
     id="g1479"
     clip-path="url(#_clipPath_mEzi0oRCAFt6mNw2Cdr4kt4goTaracK5)">
    <rect
       style="stroke-width:0.75;fill:#ffffff"
       y="57.048244"
       x="561.79639"
       height="146.45668"
       width="332.80838"
       id="rect1557" />
    <g
       id="g1437">
      <path
         style="fill:#231f20"
         id="path1361"
         d="m 746.53103,112.24277 v -10.292 h 5.417 c 0.75,-0.085 1.5,0.152 2.065,0.652 0.565,0.5 0.891,1.216 0.898,1.971 0.064,1.115 -0.686,2.113 -1.775,2.362 1.186,0.251 2.019,1.319 1.975,2.53 0.024,0.782 -0.291,1.536 -0.865,2.069 -0.574,0.532 -1.349,0.79 -2.127,0.708 z m 6.142,-7.283 c 0.007,-0.315 -0.121,-0.617 -0.35,-0.832 -0.23,-0.215 -0.54,-0.322 -0.853,-0.295 h -2.743 v 2.238 h 2.746 c 0.311,0.029 0.62,-0.075 0.849,-0.287 0.229,-0.212 0.357,-0.512 0.351,-0.824 z m 0.2,4.196 c 0.002,-0.341 -0.141,-0.668 -0.395,-0.897 -0.253,-0.23 -0.592,-0.341 -0.932,-0.306 h -2.819 v 2.393 h 2.822 c 0.34,0.046 0.683,-0.059 0.938,-0.288 0.255,-0.229 0.396,-0.559 0.386,-0.902 z" />
      <path
         style="fill:#231f20"
         id="path1363"
         d="m 763.86003,112.24277 -0.636,-1.744 h -4.414 l -0.647,1.744 h -2.5 l 3.982,-10.292 h 2.746 l 3.967,10.292 z m -2.837,-8.101 -1.604,4.429 h 3.209 z" />
      <path
         style="fill:#231f20"
         id="path1365"
         d="m 767.31703,112.24277 v -10.292 h 4.058 c 3.225,0 5.462,2.053 5.462,5.153 0,3.101 -2.237,5.139 -5.462,5.139 z m 7.283,-5.139 c 0.064,-0.873 -0.255,-1.731 -0.874,-2.351 -0.62,-0.619 -1.478,-0.938 -2.351,-0.873 h -1.872 v 6.434 h 1.867 c 0.866,0.042 1.709,-0.281 2.324,-0.892 0.614,-0.611 0.943,-1.452 0.906,-2.318 z" />
      <path
         style="fill:#231f20"
         id="path1367"
         d="m 778.39603,112.24277 v -10.292 h 2.191 v 10.292 z" />
      <path
         style="fill:#231f20"
         id="path1369"
         d="m 781.92903,110.79277 1.188,-1.666 c 0.855,0.89 2.037,1.392 3.272,1.388 1.204,0 1.79,-0.555 1.79,-1.141 0,-1.821 -5.925,-0.572 -5.925,-4.445 0,-1.713 1.484,-3.132 3.902,-3.132 1.473,-0.056 2.91,0.458 4.013,1.435 l -1.219,1.605 c -0.822,-0.736 -1.89,-1.138 -2.993,-1.127 -0.942,0 -1.467,0.417 -1.467,1.034 0,1.635 5.911,0.54 5.911,4.383 0,1.882 -1.342,3.302 -4.119,3.302 -1.615,0.077 -3.189,-0.515 -4.353,-1.636 z" />
      <path
         style="fill:#231f20"
         id="path1371"
         d="m 791.38903,107.10377 c -0.028,-1.447 0.546,-2.841 1.584,-3.85 1.038,-1.009 2.448,-1.542 3.894,-1.473 1.797,-0.052 3.467,0.924 4.303,2.516 l -1.881,0.926 c -0.473,-0.905 -1.402,-1.48 -2.422,-1.498 -1.81,0.078 -3.236,1.568 -3.236,3.379 0,1.811 1.426,3.301 3.236,3.379 1.022,-0.01 1.954,-0.586 2.422,-1.495 l 1.881,0.91 c -0.837,1.592 -2.505,2.573 -4.303,2.531 -1.446,0.068 -2.856,-0.465 -3.894,-1.474 -1.039,-1.009 -1.612,-2.403 -1.584,-3.851 z" />
      <path
         style="fill:#231f20"
         id="path1373"
         d="m 809.53403,112.24277 v -4.321 h -4.86 v 4.321 h -2.191 v -10.292 h 2.191 v 4.043 h 4.86 v -4.043 h 2.207 v 10.292 z" />
      <path
         style="fill:#231f20"
         id="path1375"
         d="m 813.76203,112.24277 v -10.292 h 7.283 v 1.929 h -5.088 v 2.181 h 4.982 v 1.929 h -4.982 v 2.332 h 5.088 v 1.93 z" />
      <path
         style="fill:#231f20"
         id="path1377"
         d="m 828.57503,112.24277 -2.021,-3.657 h -1.606 v 3.657 h -2.19 v -10.292 h 4.815 c 0.913,-0.072 1.813,0.249 2.473,0.883 0.66,0.634 1.018,1.521 0.983,2.435 0.088,1.43 -0.862,2.718 -2.254,3.055 l 2.315,3.922 z m 0.212,-6.974 c 0,-0.396 -0.168,-0.773 -0.462,-1.038 -0.294,-0.265 -0.687,-0.393 -1.081,-0.351 h -2.3 v 2.778 h 2.3 c 0.395,0.042 0.788,-0.085 1.083,-0.35 0.295,-0.265 0.463,-0.642 0.464,-1.039 z" />
      <path
         style="fill:#231f20"
         id="path1379"
         d="m 745.83703,126.22277 1.188,-1.666 c 0.855,0.891 2.037,1.393 3.272,1.389 1.204,0 1.79,-0.556 1.79,-1.142 0,-1.821 -5.926,-0.571 -5.926,-4.444 0,-1.712 1.484,-3.133 3.904,-3.133 1.473,-0.056 2.91,0.459 4.013,1.435 l -1.217,1.603 c -0.822,-0.736 -1.89,-1.138 -2.993,-1.127 -0.942,0 -1.467,0.417 -1.467,1.035 0,1.634 5.911,0.539 5.911,4.382 0,1.883 -1.342,3.302 -4.119,3.302 -1.615,0.079 -3.191,-0.512 -4.356,-1.634 z" />
      <path
         style="fill:#231f20"
         id="path1381"
         d="m 755.79103,127.67377 v -10.292 h 4.814 c 1.217,-0.049 2.363,0.573 2.985,1.619 0.623,1.047 0.623,2.35 0,3.396 -0.622,1.047 -1.768,1.668 -2.985,1.62 h -2.623 v 3.657 z m 6.032,-6.974 c 0.005,-0.392 -0.157,-0.767 -0.446,-1.032 -0.288,-0.265 -0.676,-0.395 -1.066,-0.357 h -2.332 v 2.777 h 2.332 c 0.39,0.035 0.775,-0.095 1.063,-0.36 0.288,-0.264 0.451,-0.638 0.449,-1.028 z" />
      <path
         style="fill:#231f20"
         id="path1383"
         d="m 764.92503,122.53577 c -0.022,-2.181 1.275,-4.159 3.283,-5.008 2.009,-0.848 4.331,-0.4 5.88,1.135 1.548,1.535 2.016,3.854 1.185,5.87 -0.832,2.015 -2.799,3.329 -4.98,3.326 -1.432,0.057 -2.824,-0.485 -3.842,-1.494 -1.018,-1.009 -1.571,-2.396 -1.526,-3.829 z m 8.502,0 c -0.133,-1.693 -1.59,-2.973 -3.285,-2.886 -1.696,0.087 -3.015,1.509 -2.973,3.207 0.041,1.697 1.426,3.053 3.124,3.058 0.877,0.005 1.714,-0.358 2.31,-1.001 0.595,-0.642 0.893,-1.505 0.822,-2.378 z" />
      <path
         style="fill:#231f20"
         id="path1385"
         d="m 783.04003,127.67377 -2.02,-3.657 h -1.606 v 3.657 h -2.19 v -10.292 h 4.814 c 0.913,-0.072 1.813,0.249 2.473,0.883 0.661,0.634 1.018,1.52 0.983,2.435 0.089,1.43 -0.861,2.717 -2.254,3.055 l 2.315,3.922 z m 0.212,-6.974 c 0,-0.396 -0.168,-0.773 -0.462,-1.038 -0.294,-0.264 -0.687,-0.392 -1.08,-0.351 h -2.3 v 2.777 h 2.3 c 0.394,0.043 0.788,-0.084 1.083,-0.349 0.295,-0.265 0.463,-0.643 0.463,-1.039 z" />
      <path
         style="fill:#231f20"
         id="path1387"
         d="m 789.38203,127.67377 v -8.363 h -3.008 v -1.929 h 8.21 v 1.929 h -2.995 v 8.363 z" />
      <path
         style="fill:#231f20"
         id="path1389"
         d="m 795.98703,127.67377 v -10.292 h 5.416 c 0.749,-0.085 1.5,0.151 2.065,0.651 0.565,0.501 0.891,1.217 0.897,1.971 0.065,1.115 -0.685,2.113 -1.774,2.361 1.186,0.252 2.019,1.32 1.976,2.531 0.023,0.783 -0.293,1.537 -0.866,2.069 -0.574,0.533 -1.35,0.791 -2.129,0.709 z m 6.141,-7.284 c 0.006,-0.314 -0.121,-0.616 -0.351,-0.831 -0.229,-0.215 -0.539,-0.322 -0.853,-0.294 h -2.747 v 2.236 h 2.747 c 0.312,0.031 0.621,-0.073 0.851,-0.285 0.23,-0.213 0.358,-0.513 0.353,-0.826 z m 0.2,4.198 c 0.002,-0.342 -0.141,-0.669 -0.394,-0.899 -0.254,-0.23 -0.593,-0.341 -0.933,-0.305 h -2.824 v 2.393 h 2.824 c 0.34,0.048 0.684,-0.057 0.94,-0.286 0.255,-0.229 0.397,-0.56 0.387,-0.903 z" />
      <path
         style="fill:#231f20"
         id="path1391"
         d="m 806.21703,123.56877 v -6.187 h 2.226 v 6.11 c 0,1.333 1.081,2.415 2.415,2.415 1.333,0 2.414,-1.082 2.414,-2.415 v -6.11 h 2.235 v 6.169 c 0,2.561 -1.512,4.305 -4.644,4.305 -3.132,0 -4.646,-1.761 -4.646,-4.287 z" />
      <path
         style="fill:#231f20"
         id="path1393"
         d="m 824.62303,127.67377 -4.907,-6.712 v 6.712 h -2.191 v -10.292 h 2.253 l 4.77,6.466 v -6.466 h 2.195 v 10.292 z" />
      <path
         style="fill:#231f20"
         id="path1395"
         d="m 828.77603,127.67377 v -10.292 h 4.058 c 3.225,0 5.463,2.052 5.463,5.154 0,3.101 -2.238,5.138 -5.463,5.138 z m 7.283,-5.138 c 0.065,-0.874 -0.254,-1.732 -0.874,-2.351 -0.619,-0.62 -1.478,-0.938 -2.351,-0.874 h -1.867 v 6.433 h 1.867 c 0.864,0.042 1.707,-0.282 2.32,-0.893 0.614,-0.61 0.942,-1.451 0.905,-2.315 z" />
      <path
         style="fill:#231f20"
         id="path1397"
         d="m 746.53103,143.10377 v -10.292 h 7.284 v 1.93 h -5.088 v 2.175 h 4.982 v 1.929 h -4.982 v 4.258 z" />
      <path
         style="fill:#231f20"
         id="path1399"
         d="m 761.15903,143.10377 -2.02,-3.657 h -1.605 v 3.657 h -2.191 v -10.292 h 4.815 c 0.912,-0.072 1.812,0.249 2.473,0.883 0.66,0.634 1.018,1.52 0.983,2.435 0.09,1.431 -0.86,2.719 -2.253,3.055 l 2.314,3.922 z m 0.212,-6.974 c 0,-0.395 -0.168,-0.772 -0.462,-1.037 -0.294,-0.265 -0.686,-0.392 -1.08,-0.351 h -2.299 v 2.777 h 2.299 c 0.394,0.042 0.788,-0.085 1.083,-0.35 0.295,-0.265 0.464,-0.642 0.464,-1.039 z" />
      <path
         style="fill:#231f20"
         id="path1401"
         d="m 765.26303,143.10377 v -10.292 h 7.283 v 1.93 h -5.088 v 2.175 h 4.982 v 1.929 h -4.982 v 2.332 h 5.088 v 1.928 z" />
      <path
         style="fill:#231f20"
         id="path1403"
         d="m 774.26103,143.10377 v -10.292 h 2.19 v 10.292 z" />
      <path
         style="fill:#231f20"
         id="path1405"
         d="m 778.48803,143.10377 v -10.292 h 5.416 c 0.75,-0.087 1.503,0.15 2.069,0.65 0.566,0.5 0.893,1.217 0.899,1.973 0.065,1.115 -0.686,2.113 -1.774,2.362 1.186,0.251 2.019,1.318 1.975,2.53 0.024,0.782 -0.292,1.537 -0.866,2.069 -0.574,0.532 -1.35,0.79 -2.128,0.708 z m 6.141,-7.282 c 0.007,-0.315 -0.121,-0.617 -0.35,-0.832 -0.23,-0.215 -0.54,-0.322 -0.853,-0.295 h -2.748 v 2.238 h 2.748 c 0.311,0.03 0.621,-0.074 0.851,-0.286 0.23,-0.212 0.358,-0.512 0.352,-0.825 z m 0.2,4.196 c 0.003,-0.342 -0.141,-0.669 -0.394,-0.898 -0.253,-0.23 -0.593,-0.341 -0.933,-0.306 h -2.824 v 2.393 h 2.824 c 0.834,0 1.327,-0.448 1.327,-1.189 z" />
      <path
         style="fill:#231f20"
         id="path1407"
         d="m 788.71903,138.99977 v -6.188 h 2.226 v 6.109 c -0.019,0.875 0.437,1.692 1.192,2.134 0.755,0.443 1.69,0.443 2.445,0 0.755,-0.442 1.211,-1.259 1.193,-2.134 v -6.109 h 2.237 v 6.173 c 0,2.561 -1.512,4.305 -4.644,4.305 -3.133,0 -4.649,-1.76 -4.649,-4.29 z" />
      <path
         style="fill:#231f20"
         id="path1409"
         d="m 805.84603,143.10377 -2.021,-3.657 h -1.604 v 3.657 h -2.19 v -10.292 h 4.814 c 0.913,-0.071 1.812,0.251 2.472,0.885 0.659,0.633 1.017,1.519 0.982,2.433 0.09,1.431 -0.86,2.719 -2.254,3.055 l 2.315,3.922 z m 0.212,-6.974 c 0,-0.395 -0.168,-0.772 -0.462,-1.037 -0.294,-0.265 -0.687,-0.392 -1.08,-0.351 h -2.299 v 2.777 h 2.299 c 0.394,0.042 0.788,-0.085 1.083,-0.35 0.295,-0.265 0.463,-0.642 0.463,-1.039 z" />
      <path
         style="fill:#231f20"
         id="path1411"
         d="m 809.45803,137.96677 c -0.031,-1.448 0.541,-2.844 1.58,-3.854 1.039,-1.009 2.451,-1.542 3.898,-1.469 1.729,-0.055 3.355,0.823 4.258,2.299 l -1.82,0.987 c -0.533,-0.831 -1.451,-1.336 -2.438,-1.342 -1.81,0.078 -3.236,1.568 -3.236,3.379 0,1.811 1.426,3.301 3.236,3.38 0.799,-0.003 1.572,-0.281 2.19,-0.788 v -1.235 h -2.715 v -1.913 h 4.912 v 3.948 c -1.105,1.26 -2.707,1.971 -4.382,1.945 -1.448,0.068 -2.86,-0.468 -3.899,-1.479 -1.039,-1.011 -1.613,-2.408 -1.584,-3.858 z" />
      <clipPath
         id="_clipPath_2FX9qV9MMemtXzzqpUdvUIEuP0vEUmwv">
        <rect
           style="fill:#ffffff"
           id="rect1413"
           height="631"
           width="892.40802"
           y="-72"
           x="259.689" />
      </clipPath>
      <g
         transform="translate(15.748031,-14.173228)"
         id="g1420"
         clip-path="url(#_clipPath_2FX9qV9MMemtXzzqpUdvUIEuP0vEUmwv)">
        <g
           id="g1418">
          <path
             style="fill:#f2c02d;fill-rule:evenodd"
             id="path1416"
             d="m 669.22,84.612 c -58.035,-6.89 -89.172,6.466 -99.198,23.408 0,0 1.678,18.396 8.199,26.379 0,0 10.706,-47.579 119.522,-34.417" />
        </g>
      </g>
      <path
         style="fill:#231f20"
         id="path1422"
         d="m 635.20003,143.97877 v -43.618 h 19.42 c 7.586,0 12.229,4.578 12.229,11.117 0.168,4.735 -3.038,8.927 -7.651,10.005 4.642,0.72 8.501,5.494 8.501,10.725 0,6.996 -4.643,11.766 -12.622,11.766 z m 26.026,-31.716 c 0,-3.922 -2.615,-7.063 -7.519,-7.063 h -13.082 v 14.06 h 13.08 c 4.904,0 7.519,-3.008 7.519,-6.997 z m 0.848,19.356 c 0,-3.989 -2.746,-7.52 -8.109,-7.52 h -13.34 v 15.041 h 13.337 c 5.104,0 8.112,-2.878 8.112,-7.521 z" />
      <path
         style="fill:#231f20"
         id="path1424"
         d="m 670.44503,137.83177 3.205,-4.12 c 3.483,3.933 8.479,6.192 13.732,6.212 7.781,0 10.266,-4.185 10.266,-7.52 0,-11.247 -25.83,-5.035 -25.83,-20.599 0,-7.193 6.409,-12.097998 14.976,-12.097998 6.669,0 11.836,2.225998 15.497,6.081998 l -3.269,3.988 c -3.269,-3.465 -7.862,-5.368 -12.624,-5.231 -5.231,0 -8.958,2.813 -8.958,6.932 0,9.809 25.83,4.186 25.83,20.468 0,6.344 -4.316,12.817 -16.086,12.817 -7.585,0 -13.142,-2.874 -16.739,-6.931 z" />
      <path
         style="fill:#231f20"
         id="path1426"
         d="m 708.17703,143.97877 v -43.618 h 19.422 c 7.585,0 12.228,4.578 12.228,11.117 0.168,4.734 -3.037,8.926 -7.65,10.005 4.642,0.72 8.5,5.494 8.5,10.725 0,6.996 -4.643,11.766 -12.62,11.766 z m 26.028,-31.716 c 0,-3.922 -2.617,-7.063 -7.52,-7.063 h -13.081 v 14.06 h 13.08 c 4.903,0 7.521,-3.008 7.521,-6.997 z m 0.848,19.356 c 0,-3.989 -2.747,-7.52 -8.109,-7.52 h -13.34 v 15.041 h 13.341 c 5.1,0 8.108,-2.878 8.108,-7.521 z" />
      <clipPath
         id="_clipPath_58sYO6YT0S4tY74dToKc7SbCgthndRQy">
        <rect
           style="fill:#ffffff"
           id="rect1428"
           height="631"
           width="892.40802"
           y="-72"
           x="259.689" />
      </clipPath>
      <g
         transform="translate(15.748031,-14.173228)"
         id="g1435"
         clip-path="url(#_clipPath_58sYO6YT0S4tY74dToKc7SbCgthndRQy)">
        <g
           id="g1433">
          <path
             style="fill:#c52226;fill-rule:evenodd"
             id="path1431"
             d="m 871.681,160.32 c -140.186,54.856 -272.509,55.113 -301.837,6.811 -9.889,-17.497 -10.711,-38.694 -2.207,-56.903 0,0 -7.685,117.787 277.808,44.865" />
        </g>
      </g>
    </g>
    <defs
       id="defs1445">
      <mask
         id="_mask_WYxJh4ISIXRDdLgQLn03VE8F86t5kSmp">
        <path
           id="path1439"
           style="fill:#ffffff;stroke:#000000;stroke-miterlimit:10"
           d="M 110.8,304.29 H 290 V 564 H 110.8 Z" />
      </mask>
      <mask
         id="_mask_RDevEfsIfLB1rwbPmZK7DvPawwXVQyD3">
        <path
           id="path1442"
           style="fill:#ffffff;stroke:#000000;stroke-miterlimit:10"
           d="M 110.8,304.29 H 290 V 564 H 110.8 Z" />
      </mask>
    </defs>
    <g
       id="g1449"
       mask="url(#_mask_RDevEfsIfLB1rwbPmZK7DvPawwXVQyD3)">
      <g
         id="g1447"
         mask="url(#_mask_WYxJh4ISIXRDdLgQLn03VE8F86t5kSmp)" />
    </g>
  </g>
  <defs
     id="defs1482" />
</svg>
