<?xml version="1.0" encoding="UTF-8" standalone="no"?>
<svg
   xmlns:dc="http://purl.org/dc/elements/1.1/"
   xmlns:cc="http://creativecommons.org/ns#"
   xmlns:rdf="http://www.w3.org/1999/02/22-rdf-syntax-ns#"
   xmlns:svg="http://www.w3.org/2000/svg"
   xmlns="http://www.w3.org/2000/svg"
   id="svg1484"
   version="1.1"
   height="243.10001pt"
   width="401.60001pt"
   viewBox="0 0 401.60001 243.10001"
   style="isolation:isolate">
  <metadata
     id="metadata1488">
    <rdf:RDF>
      <cc:Work
         rdf:about="">
        <dc:format>image/svg+xml</dc:format>
        <dc:type
           rdf:resource="http://purl.org/dc/dcmitype/StillImage" />
        <dc:title></dc:title>
      </cc:Work>
    </rdf:RDF>
  </metadata>
  <defs
     id="defs772">
    <clipPath
       id="_clipPath_mEzi0oRCAFt6mNw2Cdr4kt4goTaracK5">
      <rect
         y="0"
         x="0"
         id="rect769"
         height="600"
         width="900" />
    </clipPath>
  </defs>
  <g
     transform="translate(-466.645,-202.90166)"
     id="g1479"
     clip-path="url(#_clipPath_mEzi0oRCAFt6mNw2Cdr4kt4goTaracK5)">
    <defs
       id="defs1445">
      <mask
         id="_mask_WYxJh4ISIXRDdLgQLn03VE8F86t5kSmp">
        <path
           id="path1439"
           style="fill:#ffffff;stroke:#000000;stroke-miterlimit:10"
           d="M 110.8,304.29 H 290 V 564 H 110.8 Z" />
      </mask>
      <mask
         id="_mask_RDevEfsIfLB1rwbPmZK7DvPawwXVQyD3">
        <path
           id="path1442"
           style="fill:#ffffff;stroke:#000000;stroke-miterlimit:10"
           d="M 110.8,304.29 H 290 V 564 H 110.8 Z" />
      </mask>
    </defs>
    <g
       id="g1449"
       mask="url(#_mask_RDevEfsIfLB1rwbPmZK7DvPawwXVQyD3)">
      <g
         id="g1447"
         mask="url(#_mask_WYxJh4ISIXRDdLgQLn03VE8F86t5kSmp)" />
    </g>
    <g
       transform="translate(12.598426,-96.062995)"
       id="g1477">
      <path
         style="fill:#005caa"
         id="path1455"
         d="m 695.145,342.8 c -25,19.4 -41.5,50.6 -40.3,82.6 l -24.9,-16.4 c 0.8,-31.2 15.4,-60.4 41.7,-81.1 z" />
      <path
         style="fill:#005caa"
         id="path1457"
         d="m 701.945,381.7 c -1.7,24.4 -6.8,50.6 -30.8,64.3 l -21.6,-14.4 c 23.3,-12.3 29.8,-41.7 26.9,-65.8 z" />
      <path
         style="fill:#000000"
         id="path1459"
         d="m 491.345,400.8 c 0.9,-3 1.4,-4.6 2.2,-6.7 -2.6,-2 -6.3,-3.3 -11.2,-3.3 -8.1,0 -15.3,5.1 -15.3,14.5 0,15.4 20.3,12.7 20.3,23 0,3.8 -2.7,6.9 -8,6.9 -5.5,0 -8.6,-3.4 -9.4,-7.3 h -1.3 c -0.5,3.1 -1.1,5.5 -2,8.6 2,1.5 6.1,2.9 10.9,2.9 10.8,0 18,-6.3 18,-15.4 0,-15.4 -20.7,-12.9 -20.7,-23 0,-3.3 2.9,-6.1 7.1,-6.1 4.2,0 6.8,2 8.2,5.8 h 1.2 z" />
      <path
         style="fill:#000000"
         id="path1461"
         d="m 513.645,406.1 c 0,-4.1 0.3,-9.1 0.6,-12 l -0.7,-0.5 c -3.1,1.5 -6.2,2.9 -9.3,4.2 0.2,3.5 0.3,5.5 0.3,8.4 l -4.8,-0.2 c 0.1,0.7 0.2,1.2 0.2,1.8 0,0.5 -0.1,1.2 -0.2,1.7 l 4.8,-0.1 c 0,5.7 -0.5,14.2 -0.5,19.4 0,6.9 3,10.5 8.6,10.5 2.6,0 5.6,-0.7 7.4,-1.8 v -2.8 c -0.8,0.5 -1.4,0.7 -3.1,0.7 -3.1,0 -3.8,-1.6 -3.8,-11 0,-3.7 0.2,-11.1 0.5,-15.2 l 6,0.1 c -0.1,-0.5 -0.2,-1.2 -0.2,-1.7 0,-0.6 0.1,-1.2 0.2,-1.8 z" />
      <path
         style="fill:#000000;fill-rule:evenodd"
         id="path1463"
         d="m 525.645,413.6 h 0.5 c 1.4,-1.9 5,-3.7 8.2,-3.7 4.1,0 6.5,2.7 6.5,5.9 0,2.4 -0.7,3 -8.3,4.8 -6.1,1.5 -10.1,4 -10.1,9.9 0,4.4 2.9,8.9 9.7,8.9 4.1,0 6.7,-2.1 8.8,-5 1.1,3.1 3.1,5 6.5,5 2.1,0 3.7,-0.5 6.3,-1.8 V 436 c -2.8,0 -4,-0.4 -4,-4.7 0,-4.9 0.2,-9.7 0.2,-15.4 0,-8 -5.2,-11.1 -12.4,-11.1 -4.3,0 -9,1.7 -12.7,4.8 z m 15.2,14.4 c 0,4.4 -2,6.7 -5,6.7 -2.4,0 -3.9,-1.8 -3.9,-5.2 0,-6.9 5.1,-6.5 9,-8.7 0,1.6 -0.1,3.3 -0.1,7.2 z" />
      <path
         style="fill:#000000;fill-rule:evenodd"
         id="path1465"
         d="m 588.445,410.6 c 0,-8.9 0.2,-15.8 0.5,-23.5 -1.2,0.2 -3.1,0.3 -5.1,0.3 -2,0 -3.9,-0.1 -5.1,-0.3 0.3,7.7 0.5,14.6 0.5,22.7 h -0.1 c -1.6,-2.9 -5.1,-5 -9,-5 -7.3,0 -13.1,7.3 -13.1,17 0,9.7 3.8,17.7 13,17.7 5.2,0 8,-2.7 9.7,-6.6 l 0.1,0.1 c 0,0.6 -0.3,5 -0.5,5.6 0.9,-0.2 2.7,-0.3 4.6,-0.3 2,0 3.9,0.1 5.1,0.3 -0.3,-7.7 -0.5,-14.6 -0.5,-23.5 v -4.5 z m -21.3,12.2 c 0,-10.4 3.3,-13.3 6.2,-13.3 3.5,0 6.1,3.7 6.1,12.1 0,9.8 -2.7,13.7 -6.4,13.7 -3.2,-0.1 -5.9,-3.3 -5.9,-12.5 z" />
      <path
         style="fill:#000000"
         id="path1467"
         d="m 608.045,406.1 c 0,-4.1 0.3,-9.1 0.6,-12 l -0.7,-0.5 c -3.1,1.5 -6.2,2.9 -9.3,4.2 0.2,3.5 0.3,5.5 0.3,8.4 l -4.8,-0.2 c 0.1,0.7 0.2,1.2 0.2,1.8 0,0.5 -0.1,1.2 -0.2,1.7 l 4.8,-0.1 c 0,5.7 -0.5,14.2 -0.5,19.4 0,6.9 3,10.5 8.6,10.5 2.6,0 5.6,-0.7 7.4,-1.8 v -2.8 c -0.8,0.5 -1.4,0.7 -3.1,0.7 -3.1,0 -3.8,-1.6 -3.8,-11 0,-3.7 0.2,-11.1 0.5,-15.2 l 6,0.1 c -0.1,-0.5 -0.2,-1.2 -0.2,-1.7 0,-0.6 0.1,-1.2 0.2,-1.8 z" />
      <path
         style="fill:#000000;fill-rule:evenodd"
         id="path1469"
         d="m 715.645,419.7 c 0,7.6 -0.1,12.9 -0.5,18.8 1.5,-0.1 4.4,-0.3 6.9,-0.3 3.4,0 6.4,0.3 10,0.3 8.1,0 15.8,-3.9 15.8,-13.6 0,-8.2 -8.1,-11.2 -12.2,-11.4 v -0.1 c 4.2,-0.7 11.1,-3.8 11.1,-11.2 0,-7.4 -5.6,-10.5 -13.7,-10.5 -3.9,0 -8.4,0.3 -12.2,0.3 -2.2,0 -4.1,-0.2 -5.6,-0.3 0.4,6 0.5,11.2 0.5,18.8 v 9.2 z m 20.9,-16.2 c 0,5.8 -3.9,8.6 -7.8,8.6 h -3.1 c 0,-2.3 -0.1,-4.5 -0.1,-6.9 0,-2.3 0.1,-6.1 0.3,-9.5 0.9,-0.1 1.4,-0.2 3.3,-0.2 5.5,0 7.4,3.6 7.4,8 z m 0.5,21.9 c 0,5.9 -3.5,9.2 -7.5,9.2 -1.5,0 -2.5,-0.1 -3.7,-0.1 0,-2.4 -0.1,-7.6 -0.1,-11.9 0,-2.8 0.1,-4.7 0.1,-6.6 0.8,0 1.7,-0.1 2.9,-0.1 5.4,0.1 8.3,3.2 8.3,9.5 z" />
      <path
         style="fill:#000000;fill-rule:evenodd"
         id="path1471"
         d="m 758.445,395.2 c 0,2.4 2,4.4 4.4,4.4 2.4,0 4.4,-2 4.4,-4.4 0,-2.4 -2,-4.4 -4.4,-4.4 -2.4,0 -4.4,1.9 -4.4,4.4 z m 14.4,0 c 0,2.4 2,4.4 4.4,4.4 2.4,0 4.4,-2 4.4,-4.4 0,-2.4 -2,-4.4 -4.4,-4.4 -2.4,0 -4.4,1.9 -4.4,4.4 z m 2.7,43.3 c 1.8,-0.1 3.3,-0.3 5,-0.3 1.6,0 3.2,0.2 4.8,0.3 -0.4,-4.8 -0.5,-9.6 -0.5,-15.1 v -2.7 c 0,-5.5 0.1,-10.3 0.5,-15.1 -1.2,0.1 -3,0.3 -5.1,0.3 -2.1,0 -3.9,-0.2 -5.1,-0.3 0.4,4.8 0.5,9.6 0.5,15.1 v 2.7 c 0,6.3 -1.8,10 -5.9,10 -3.5,0 -5.6,-2.7 -5.6,-8.3 0,-8.1 0.1,-14.6 0.7,-19.5 -1.2,0.2 -3.1,0.3 -5.1,0.3 -2,0 -3.9,-0.1 -5.1,-0.3 0.1,3.5 0.3,7 0.3,9.9 0,3.5 -0.3,6.8 -0.3,11.4 0,8.7 3.8,12.5 10.6,12.5 4.3,0 7.8,-2.3 10.3,-6 h 0.1 z" />
      <path
         style="fill:#000000"
         id="path1473"
         d="m 793.045,415 c 0,8.9 -0.2,15.8 -0.5,23.5 1.2,-0.2 3.1,-0.3 5.1,-0.3 2,0 3.9,0.1 5.1,0.3 -0.4,-4.8 -0.5,-12.6 -0.5,-15.1 v -2.7 c 0,-6.3 1.8,-10 5.9,-10 3.5,0 5.6,2.7 5.6,8.3 0,8.1 -0.1,14.6 -0.7,19.5 1.2,-0.2 3.1,-0.3 5.1,-0.3 2,0 3.9,0.1 5.1,0.3 -0.1,-3.5 -0.3,-7 -0.3,-9.9 0,-3.5 0.3,-6.8 0.3,-11.4 0,-8.7 -3.8,-12.5 -10.6,-12.5 -4.3,0 -7.8,2.3 -10.1,6 l -0.1,-0.1 c 0,-8.9 0.2,-15.8 0.5,-23.5 -1.2,0.2 -3.1,0.3 -5.1,0.3 -2,0 -3.9,-0.1 -5.1,-0.3 0.3,7.7 0.5,14.6 0.5,23.5 v 4.4 z" />
      <path
         style="fill:#000000"
         id="path1475"
         d="m 831.545,415 c 0,8.9 -0.2,15.8 -0.5,23.5 1.2,-0.2 3.1,-0.3 5.1,-0.3 2,0 3.9,0.1 5.1,0.3 -0.3,-7.7 -0.5,-14.6 -0.5,-23.5 v -4.4 c 0,-8.9 0.2,-15.8 0.5,-23.5 -1.2,0.2 -3.1,0.3 -5.1,0.3 -2,0 -3.9,-0.1 -5.1,-0.3 0.3,7.7 0.5,14.6 0.5,23.5 z" />
    </g>
    <text
       id="text1656"
       y="394.03314"
       x="559.55847"
       style="font-style:normal;font-variant:normal;font-weight:normal;font-stretch:normal;font-size:30px;line-height:1.25;font-family:'Noto Sans';-inkscape-font-specification:'Noto Sans';letter-spacing:0px;word-spacing:0px;fill:#000000;fill-opacity:1;stroke:none;stroke-width:0.75"
       xml:space="preserve"><tspan
         style="font-style:normal;font-variant:normal;font-weight:normal;font-stretch:normal;font-family:'Noto Sans';-inkscape-font-specification:'Noto Sans';stroke-width:0.75"
         y="394.03314"
         x="559.55847"
         id="tspan1654">Sportausschuss</tspan></text>
  </g>
  <defs
     id="defs1482" />
</svg>
